<svg xmlns="http://www.w3.org/2000/svg" xmlns:xlink="http://www.w3.org/1999/xlink" width="48" height="48"><linearGradient id="b" x1="3.365" x2="36.074" y1="1046.22" y2="1007.718" gradientUnits="userSpaceOnUse"><stop offset="0" stop-color="#235ea2"/><stop offset="1" stop-color="#1992f1"/></linearGradient><linearGradient xlink:href="#a" id="c" x1="400.571" x2="400.794" y1="545.798" y2="517.627" gradientUnits="userSpaceOnUse"/><linearGradient id="a"><stop offset="0" stop-color="#69159f"/><stop offset="1" stop-color="#b92ff5"/></linearGradient><linearGradient id="d" x1="3.365" x2="36.074" y1="1046.22" y2="1007.718" gradientUnits="userSpaceOnUse"><stop offset="0" stop-color="#d3d3d3"/><stop offset="1" stop-color="#fcf9f9"/></linearGradient><linearGradient xlink:href="#a" id="g" x1="408.556" x2="415.144" y1="553.74" y2="517.596" gradientUnits="userSpaceOnUse"/><linearGradient id="h" x1="403.886" x2="403.41" y1="545.695" y2="502.445" gradientUnits="userSpaceOnUse"><stop offset="0" stop-color="#faf7f7"/><stop offset="1" stop-color="#fcf9f9"/></linearGradient><linearGradient id="e" x1="407.075" x2="408.095" y1="513.767" y2="500.696" gradientUnits="userSpaceOnUse"><stop offset="0" stop-color="#abcd03"/><stop offset="1" stop-color="#b3ff80"/></linearGradient><g fill="url(#b)" stroke-width="1.3" transform="translate(-577.541 -774.605)scale(1.5017)"><circle cx="400.571" cy="531.798" r="14"/><circle cx="400.571" cy="531.798" r="14" fill="url(#c)"/></g><path fill-opacity=".157" d="M30.033 3.87c-1.59.825-3.053 1.717-4.275 2.747l-.903-.902c-1.139 1.412-2.02 2.857-2.572 4.297l-1.363-.567c.938 2.421 1.107 4.294.139 5.14-3.813 3.148-10.2 6.687-10.2 12.013 0 1.807.35 3.66 1.102 5.361q.236.529.525 1.035l.045.078a11 11 0 0 0 1.24 1.733l.022.023.092.1q.171.19.353.37l9.723 9.723.039.002A21.024 21.024 0 0 0 45.023 24a21 21 0 0 0-2.068-9.049l-9.89-9.89-.208-.1c-.247.063-.483.138-.728.203l-.863-.863a21 21 0 0 0-1.233-.432"/><g fill="none" stroke="url(#d)" stroke-width="1.3" transform="translate(-577.541 -774.605)scale(1.5017)"><circle cx="400.571" cy="531.798" r="14"/><circle cx="400.571" cy="531.798" r="14"/></g><path fill="url(#e)" d="m409.54 503.227-1.396 3.857c1.978-2.724 5.118-4.774 8.724-6.581-2.637 2.13-5.04 4.262-6.514 6.393 2.482-2.428 5.816-3.777 9.576-4.667-5.001 3.102-8.97 6.43-11.995 9.775l-2.403-.728c.426-2.67 1.876-5.405 4.008-8.049" transform="translate(-293.942 -385.902)scale(.77821)"/><path fill="#fffcdb" d="m20.83 9.417 3.57 1.481c0 .908-.074 3.677.494 4.494 5.938 7.648 4.94 22.978-1.203 23.37-9.353 0-12.92-6.353-12.92-12.193 0-5.325 6.384-8.865 10.197-12.012.968-.847.8-2.72-.138-5.14"/><path fill="url(#g)" d="m409.071 509.82 1.654.844c-.156 1.088.077 3.499 1.166 4.12 4.821 2.995 9.37 6.26 11.159 9.527 6.376 11.509-4.472 22.162-13.842 21.15 5.093-3.77 6.571-11.508 4.666-19.945-.778-3.305-1.983-6.3-4.122-9.682-.926-1.66-.603-3.72-.68-6.014" transform="translate(-293.942 -385.902)scale(.77821)"/><path fill-opacity=".157" d="M22.404 10.07v.051l-.003.007v28.578c.42.029.843.057 1.29.057 6.142-.393 7.14-15.724 1.202-23.371-.567-.817-.494-3.587-.494-4.495l-1.996-.826zM11.872 31.96l.047.098-.047-.099m.502.996.068.116zm.603.952.086.119zm.706.897.112.123zm3.928 2.817.202.086zm1.306.478.172.053zm1.47.363.093.018-.094-.018"/><path fill="url(#h)" d="M404.483 508.021c1.206 3.11 1.422 5.517.178 6.606-4.9 4.044-13.105 8.592-13.105 15.436 0 7.145 4.173 14.872 14.948 15.596V508.86z" transform="translate(-293.942 -385.902)scale(.77821)"/></svg>